<svg xmlns="http://www.w3.org/2000/svg" viewBox="0 0 128 128" fill="none">
  <g stroke-linejoin="round" stroke-linecap="round">
    <path d="M10 28 L118 28 L122 38 L120 92 L108 104 L20 104 L8 92 L6 38 Z" fill="#141414" stroke="#141414" stroke-width="1.25"/>
    <path d="M16 34 L112 34 L116 42 L114 86 L104 96 L24 96 L12 86 L12 42 Z" fill="#e8b820" stroke="#141414" stroke-width="1.4"/>
    <path d="M16 46.5 h96" fill="none" stroke="#141414" stroke-width="1.05"/>
    <rect x="24.00" y="36.20" width="20.00" height="7.60" rx="1.30" fill="#141414"/>
    <path d="M34.00 37.80v2.02" fill="none" stroke="#e8b820" stroke-width="0.95"/>
    <path d="M32.42 39.52a2.02 2.02 0 1 0 3.17 0" fill="none" stroke="#e8b820" stroke-width="0.95"/>
    <rect x="52.00" y="36.20" width="20.00" height="7.60" rx="1.30" fill="#141414"/>
    <path d="M57.4 38.2 66.6 43.4 M66.6 38.2 57.4 43.4" fill="none" stroke="#e8b820" stroke-width="1.2"/>
    <rect x="84.00" y="37.40" width="14.00" height="5.20" rx="0.90" fill="#141414"/>
    <rect x="86.20" y="38.60" width="9.60" height="2.80" rx="0.50" fill="#e8b820"/>
    <rect x="18.00" y="50.00" width="48.00" height="42.00" rx="5.50" fill="#141414"/>
    <rect x="22.00" y="54.00" width="40.00" height="34.00" rx="4.00" fill="#efe7d6" stroke="#141414" stroke-width="1.1"/>
    <circle cx="42.00" cy="71.00" r="9.00" fill="#fff" stroke="#141414" stroke-width="1.1"/>
    <circle cx="42.00" cy="71.00" r="3.20" fill="#141414"/>
    <path d="M42 62.6v3.2M34.8 75.0l2.8-1.6M49.2 75.0l-2.8-1.6" fill="none" stroke="#141414" stroke-width="1.0"/>
    <rect x="54.50" y="58.00" width="7.00" height="24.00" rx="1.30" fill="#141414"/>
    <rect x="56.00" y="62.00" width="4.00" height="16.00" rx="0.75" fill="#e8b820"/>
    <rect x="74.00" y="52.00" width="32.00" height="40.00" rx="3.00" fill="#141414"/>
    <rect x="78.00" y="56.00" width="24.00" height="32.00" rx="1.80" fill="#e8b820" stroke="#141414" stroke-width="1.0"/>
    <circle cx="90.00" cy="63.20" r="3.40" fill="#efe7d6" stroke="#141414" stroke-width="0.95"/>
    <circle cx="90.00" cy="80.80" r="3.40" fill="#efe7d6" stroke="#141414" stroke-width="0.95"/>
    <circle cx="90.00" cy="63.20" r="1.20" fill="#141414"/>
    <circle cx="90.00" cy="80.80" r="1.20" fill="#141414"/>
    <rect x="81.00" y="70.40" width="18.00" height="3.20" rx="1.60" fill="#141414"/>
    <rect x="82.60" y="70.95" width="14.80" height="2.10" rx="1.05" fill="#efe7d6"/>
    <circle cx="108.50" cy="51.50" r="2.30" fill="#c8342a" stroke="#141414" stroke-width="0.7"/>
  </g>
</svg>
