<svg xmlns="http://www.w3.org/2000/svg" viewBox="0 0 96 96" fill="none">
  <rect x="10" y="18" width="76" height="60" rx="6" stroke="#141414" stroke-width="2.5" fill="#fff"/>
  <rect x="18" y="26" width="60" height="14" rx="2" stroke="#141414" stroke-width="2" fill="#efe7d6"/>
  <g stroke="#141414" stroke-width="1.6" fill="#141414">
    <rect x="18" y="48" width="5.5" height="4.5" rx="0.8"/><rect x="26" y="48" width="5.5" height="4.5" rx="0.8"/><rect x="34" y="48" width="5.5" height="4.5" rx="0.8"/><rect x="42" y="48" width="5.5" height="4.5" rx="0.8"/><rect x="50" y="48" width="5.5" height="4.5" rx="0.8"/><rect x="58" y="48" width="5.5" height="4.5" rx="0.8"/><rect x="66" y="48" width="5.5" height="4.5" rx="0.8"/><rect x="18" y="55" width="5.5" height="4.5" rx="0.8"/><rect x="26" y="55" width="5.5" height="4.5" rx="0.8"/><rect x="34" y="55" width="5.5" height="4.5" rx="0.8"/><rect x="42" y="55" width="5.5" height="4.5" rx="0.8"/><rect x="50" y="55" width="5.5" height="4.5" rx="0.8"/><rect x="58" y="55" width="5.5" height="4.5" rx="0.8"/><rect x="66" y="55" width="5.5" height="4.5" rx="0.8"/><rect x="18" y="62" width="5.5" height="4.5" rx="0.8"/><rect x="26" y="62" width="5.5" height="4.5" rx="0.8"/><rect x="34" y="62" width="5.5" height="4.5" rx="0.8"/><rect x="42" y="62" width="5.5" height="4.5" rx="0.8"/><rect x="50" y="62" width="5.5" height="4.5" rx="0.8"/><rect x="58" y="62" width="5.5" height="4.5" rx="0.8"/><rect x="66" y="62" width="5.5" height="4.5" rx="0.8"/>
  </g>
  <rect x="68" y="48" width="10" height="18" rx="1.5" fill="#c8342a"/>
</svg>