<svg xmlns="http://www.w3.org/2000/svg" viewBox="0 0 128 128" fill="none">
  <g stroke-linejoin="round" stroke-linecap="round">

    <rect x="16" y="8" width="96" height="26" rx="10" fill="#efe7d6" stroke="#141414" stroke-width="2"/>
    <rect x="54" y="12.5" width="20" height="11" rx="1.5" fill="#fff" stroke="#141414" stroke-width="1.15"/>
    <rect x="57" y="15.2" width="14" height="2.0" fill="#141414"/>
    <rect x="57" y="18.8" width="9" height="2.0" fill="#141414"/>
    <rect x="8" y="26" width="112" height="94" rx="14" fill="#fff" stroke="#141414" stroke-width="2.2"/>
    <rect x="12" y="30" width="104" height="86" rx="11" fill="#fff" stroke="#141414" stroke-width="0.8"/>
    <!-- tape exits left of the deck -->
    <rect x="8" y="44" width="6" height="12" rx="1" fill="#141414"/>
    
    <rect x="0" y="43" width="22" height="10" rx="1.1" fill="#efe7d6" stroke="#141414" stroke-width="1.25"/>
    <rect x="2.2" y="45.0" width="16.0" height="1.15" fill="#141414"/>
    <rect x="2.2" y="47.5" width="13.0" height="1.15" fill="#141414"/>
    <!-- color LCD -->
    <rect x="26" y="34" width="76" height="28" rx="2.5" fill="#141414"/>
    <rect x="30" y="37.4" width="68" height="21.2" rx="1.6" fill="#efe7d6"/>
    <rect x="34" y="41" width="14" height="14" rx="1.4" fill="#fff" stroke="#141414" stroke-width="0.7"/>
    <rect x="51" y="41" width="14" height="14" rx="1.4" fill="#e8b820" stroke="#141414" stroke-width="0.7"/>
    <rect x="68" y="41" width="14" height="14" rx="1.4" fill="#fff" stroke="#141414" stroke-width="0.7"/>
    <rect x="85" y="41" width="9" height="14" rx="1.4" fill="#c8342a" stroke="#141414" stroke-width="0.7"/>
    <rect x="36.5" y="45.2" width="9" height="1.3" fill="#141414"/>
    <rect x="36.5" y="49.0" width="6" height="1.3" fill="#141414"/>
    <circle cx="22" cy="18" r="3.0" fill="#fff" stroke="#141414" stroke-width="1.05"/>
    <path d="M21.1 16.2l1.8 1.8-1.8 1.8V16.2z" fill="#141414"/>
    <rect x="14" y="66.5" width="11" height="8.2" rx="2" fill="#c8342a"/>
    <rect x="27.00" y="66.50" width="8.60" height="8.20" rx="1.5" fill="#141414"/>
    <rect x="37.15" y="66.50" width="8.60" height="8.20" rx="1.5" fill="#141414"/>
    <rect x="47.30" y="66.50" width="8.60" height="8.20" rx="1.5" fill="#141414"/>
    <rect x="57.45" y="66.50" width="8.60" height="8.20" rx="1.5" fill="#141414"/>
    <rect x="67.60" y="66.50" width="8.60" height="8.20" rx="1.5" fill="#141414"/>
    <rect x="77.75" y="66.50" width="8.60" height="8.20" rx="1.5" fill="#141414"/>
    <rect x="87.90" y="66.50" width="8.60" height="8.20" rx="1.5" fill="#141414"/>
    <rect x="102.6" y="66.5" width="11.4" height="8.2" rx="1.6" fill="#c8342a"/>
    <rect x="13" y="78" width="102" height="34" rx="6" fill="#efe7d6" stroke="#141414" stroke-width="1.1"/>
    <rect x="15.60" y="80.60" width="6.50" height="6.00" rx="1.0" fill="#141414"/>
    <rect x="23.42" y="80.60" width="6.50" height="6.00" rx="1.0" fill="#141414"/>
    <rect x="31.24" y="80.60" width="6.50" height="6.00" rx="1.0" fill="#141414"/>
    <rect x="39.06" y="80.60" width="6.50" height="6.00" rx="1.0" fill="#141414"/>
    <rect x="46.88" y="80.60" width="6.50" height="6.00" rx="1.0" fill="#141414"/>
    <rect x="54.70" y="80.60" width="6.50" height="6.00" rx="1.0" fill="#141414"/>
    <rect x="62.52" y="80.60" width="6.50" height="6.00" rx="1.0" fill="#141414"/>
    <rect x="70.34" y="80.60" width="6.50" height="6.00" rx="1.0" fill="#141414"/>
    <rect x="78.16" y="80.60" width="6.50" height="6.00" rx="1.0" fill="#141414"/>
    <rect x="85.98" y="80.60" width="6.50" height="6.00" rx="1.0" fill="#141414"/>
    <rect x="93.80" y="80.60" width="6.50" height="6.00" rx="1.0" fill="#141414"/>
    <rect x="101.62" y="80.60" width="6.50" height="6.00" rx="1.0" fill="#141414"/>
    <rect x="18.80" y="88.00" width="6.50" height="6.00" rx="1.0" fill="#141414"/>
    <rect x="26.62" y="88.00" width="6.50" height="6.00" rx="1.0" fill="#141414"/>
    <rect x="34.44" y="88.00" width="6.50" height="6.00" rx="1.0" fill="#141414"/>
    <rect x="42.26" y="88.00" width="6.50" height="6.00" rx="1.0" fill="#141414"/>
    <rect x="50.08" y="88.00" width="6.50" height="6.00" rx="1.0" fill="#141414"/>
    <rect x="57.90" y="88.00" width="6.50" height="6.00" rx="1.0" fill="#141414"/>
    <rect x="65.72" y="88.00" width="6.50" height="6.00" rx="1.0" fill="#141414"/>
    <rect x="73.54" y="88.00" width="6.50" height="6.00" rx="1.0" fill="#141414"/>
    <rect x="81.36" y="88.00" width="6.50" height="6.00" rx="1.0" fill="#141414"/>
    <rect x="89.18" y="88.00" width="6.50" height="6.00" rx="1.0" fill="#141414"/>
    <rect x="97.00" y="88.00" width="6.50" height="6.00" rx="1.0" fill="#141414"/>
    <rect x="22.20" y="95.40" width="6.50" height="6.00" rx="1.0" fill="#141414"/>
    <rect x="30.02" y="95.40" width="6.50" height="6.00" rx="1.0" fill="#141414"/>
    <rect x="37.84" y="95.40" width="6.50" height="6.00" rx="1.0" fill="#141414"/>
    <rect x="45.66" y="95.40" width="6.50" height="6.00" rx="1.0" fill="#141414"/>
    <rect x="53.48" y="95.40" width="6.50" height="6.00" rx="1.0" fill="#141414"/>
    <rect x="61.30" y="95.40" width="6.50" height="6.00" rx="1.0" fill="#141414"/>
    <rect x="69.12" y="95.40" width="6.50" height="6.00" rx="1.0" fill="#141414"/>
    <rect x="76.94" y="95.40" width="6.50" height="6.00" rx="1.0" fill="#141414"/>
    <rect x="84.76" y="95.40" width="6.50" height="6.00" rx="1.0" fill="#141414"/>
    <rect x="92.58" y="95.40" width="6.50" height="6.00" rx="1.0" fill="#141414"/>
    <rect x="22" y="102.8" width="18" height="5.6" rx="1.2" fill="#141414"/>
    <rect x="42.2" y="102.8" width="32" height="5.6" rx="1.5" fill="#141414"/>
    <rect x="76.4" y="102.8" width="18" height="5.6" rx="1.2" fill="#141414"/>
    <rect x="96.6" y="102.8" width="14.2" height="5.6" rx="1.2" fill="#141414"/>
  </g>
</svg>
