<svg xmlns="http://www.w3.org/2000/svg" viewBox="0 0 96 96" fill="none">
  <rect x="14" y="16" width="68" height="64" rx="8" stroke="#141414" stroke-width="2.5" fill="#fff"/>
  <rect x="22" y="24" width="52" height="16" rx="2" stroke="#141414" stroke-width="2" fill="#efe7d6"/>
  <g fill="#141414">
    <rect x="22" y="48" width="7" height="5.5" rx="1"/><rect x="31" y="48" width="7" height="5.5" rx="1"/><rect x="40" y="48" width="7" height="5.5" rx="1"/><rect x="49" y="48" width="7" height="5.5" rx="1"/><rect x="58" y="48" width="7" height="5.5" rx="1"/><rect x="22" y="56" width="7" height="5.5" rx="1"/><rect x="31" y="56" width="7" height="5.5" rx="1"/><rect x="40" y="56" width="7" height="5.5" rx="1"/><rect x="49" y="56" width="7" height="5.5" rx="1"/><rect x="58" y="56" width="7" height="5.5" rx="1"/><rect x="22" y="64" width="7" height="5.5" rx="1"/><rect x="31" y="64" width="7" height="5.5" rx="1"/><rect x="40" y="64" width="7" height="5.5" rx="1"/><rect x="49" y="64" width="7" height="5.5" rx="1"/><rect x="58" y="64" width="7" height="5.5" rx="1"/>
  </g>
  <path d="M22 78h28" stroke="#141414" stroke-width="2.5" stroke-linecap="round"/>
</svg>