<svg xmlns="http://www.w3.org/2000/svg" viewBox="0 0 128 128" fill="none">
  <g stroke-linejoin="round" stroke-linecap="round">
    <path d="M46.0 9.0 C31.0 9.0 22.0 17.0 22.0 29.0 L22.0 38.0 C22.0 47.0 29.0 53.0 32.0 61.0 C35.0 69.0 33.0 77.0 33.0 90.0 C33.0 108.0 44.0 119.0 64 119.0 C84.0 119.0 95.0 108.0 95.0 90.0 C95.0 77.0 93.0 69.0 96.0 61.0 C99.0 53.0 106.0 47.0 106.0 38.0 L106.0 29.0 C106.0 17.0 97.0 9.0 82.0 9.0 Z" fill="#fff" stroke="#141414" stroke-width="2.2"/>
    <path d="M51.2 14.2 C36.2 14.2 27.2 22.2 27.2 34.2 L27.2 43.2 C27.2 52.2 34.2 58.2 37.2 66.2 C40.2 74.2 38.2 82.2 38.2 95.2 C38.2 113.2 49.2 113.8 64 113.8 C78.8 113.8 89.8 113.2 89.8 95.2 C89.8 82.2 87.8 74.2 90.8 66.2 C93.8 58.2 100.8 52.2 100.8 43.2 L100.8 34.2 C100.8 22.2 91.8 14.2 76.8 14.2 Z" fill="#fff" stroke="#141414" stroke-width="0.85"/>
    <rect x="56.50" y="11.00" width="15.00" height="2.60" rx="1.30" fill="#141414"/>
    <rect x="58.10" y="11.55" width="11.80" height="1.50" rx="0.75" fill="#efe7d6"/>
    <rect x="40.00" y="17.60" width="48.00" height="18.20" rx="1.80" fill="#efe7d6" stroke="#141414" stroke-width="1.4"/>
    <rect x="43.50" y="22.02" width="41.00" height="1.10" rx="0.40" fill="#141414"/>
    <rect x="43.50" y="25.76" width="25.42" height="1.10" rx="0.40" fill="#141414"/>
    <rect x="43.50" y="29.49" width="41.00" height="1.10" rx="0.40" fill="#141414"/>
    <rect x="32.00" y="39.00" width="10.80" height="8.40" rx="2.10" fill="#fff" stroke="#141414" stroke-width="1.0"/>
    <path d="M37.40 40.75v2.25" fill="none" stroke="#c8342a" stroke-width="1.1"/>
    <path d="M35.64 42.66a2.25 2.25 0 1 0 3.53 0" fill="none" stroke="#c8342a" stroke-width="1.1"/>
    <rect x="44.20" y="39.00" width="8.05" height="8.40" rx="1.25" fill="#141414" stroke="#141414" stroke-width="0.5"/>
    <rect x="53.45" y="39.00" width="8.05" height="8.40" rx="1.25" fill="#141414" stroke="#141414" stroke-width="0.5"/>
    <rect x="62.70" y="39.00" width="8.05" height="8.40" rx="1.25" fill="#141414" stroke="#141414" stroke-width="0.5"/>
    <rect x="71.95" y="39.00" width="8.05" height="8.40" rx="1.25" fill="#141414" stroke="#141414" stroke-width="0.5"/>
    <rect x="85.20" y="39.00" width="10.80" height="8.40" rx="2.10" fill="#fff" stroke="#141414" stroke-width="1.0"/>
    <rect x="87.91" y="41.67" width="5.39" height="3.80" rx="0.70" fill="#141414"/>
    <rect x="88.88" y="40.07" width="3.45" height="1.90" rx="0.35" fill="#141414"/>
    <rect x="89.09" y="42.73" width="3.02" height="1.06" rx="0.25" fill="#fff"/>
    <rect x="32.00" y="50.00" width="13.00" height="11.00" rx="2.00" fill="#efe7d6" stroke="#141414" stroke-width="0.95"/>
    <path d="M35.4 53.2h6.2M35.4 55.5h6.2M35.4 57.8h4.6" fill="none" stroke="#141414" stroke-width="0.95"/>
    <rect x="47.50" y="50.00" width="33.00" height="11.00" rx="2.80" fill="#efe7d6" stroke="#141414" stroke-width="0.95"/>
    <circle cx="64.00" cy="55.50" r="3.15" fill="#141414"/>
    <path d="M53.2 55.5l2.6-1.7v3.4z" fill="#141414"/>
    <path d="M74.8 55.5l-2.6-1.7v3.4z" fill="#141414"/>
    <rect x="83.00" y="50.00" width="13.00" height="11.00" rx="2.00" fill="#efe7d6" stroke="#141414" stroke-width="0.95"/>
    <path d="M86.6 55.5h7.0M91.2 53.2l2.4 2.3-2.4 2.3" fill="none" stroke="#141414" stroke-width="1.0"/>
    <rect x="34.50" y="63.40" width="59.00" height="48.60" rx="5.20" fill="#efe7d6" stroke="#141414" stroke-width="1.0"/>
    <rect x="37.40" y="65.70" width="4.72" height="5.50" rx="0.80" fill="#141414" stroke="#141414" stroke-width="0.5"/>
    <rect x="42.94" y="65.70" width="4.72" height="5.50" rx="0.80" fill="#141414" stroke="#141414" stroke-width="0.5"/>
    <rect x="48.48" y="65.70" width="4.72" height="5.50" rx="0.80" fill="#141414" stroke="#141414" stroke-width="0.5"/>
    <rect x="54.02" y="65.70" width="4.72" height="5.50" rx="0.80" fill="#141414" stroke="#141414" stroke-width="0.5"/>
    <rect x="59.56" y="65.70" width="4.72" height="5.50" rx="0.80" fill="#141414" stroke="#141414" stroke-width="0.5"/>
    <rect x="65.10" y="65.70" width="4.72" height="5.50" rx="0.80" fill="#141414" stroke="#141414" stroke-width="0.5"/>
    <rect x="70.64" y="65.70" width="4.72" height="5.50" rx="0.80" fill="#141414" stroke="#141414" stroke-width="0.5"/>
    <rect x="76.18" y="65.70" width="4.72" height="5.50" rx="0.80" fill="#141414" stroke="#141414" stroke-width="0.5"/>
    <rect x="81.72" y="65.70" width="4.72" height="5.50" rx="0.80" fill="#141414" stroke="#141414" stroke-width="0.5"/>
    <rect x="87.26" y="65.70" width="4.72" height="5.50" rx="0.80" fill="#141414" stroke="#141414" stroke-width="0.5"/>
    <rect x="37.40" y="72.25" width="4.72" height="5.50" rx="0.80" fill="#141414" stroke="#141414" stroke-width="0.5"/>
    <rect x="42.94" y="72.25" width="4.72" height="5.50" rx="0.80" fill="#141414" stroke="#141414" stroke-width="0.5"/>
    <rect x="48.48" y="72.25" width="4.72" height="5.50" rx="0.80" fill="#141414" stroke="#141414" stroke-width="0.5"/>
    <rect x="54.02" y="72.25" width="4.72" height="5.50" rx="0.80" fill="#141414" stroke="#141414" stroke-width="0.5"/>
    <rect x="59.56" y="72.25" width="4.72" height="5.50" rx="0.80" fill="#141414" stroke="#141414" stroke-width="0.5"/>
    <rect x="65.10" y="72.25" width="4.72" height="5.50" rx="0.80" fill="#141414" stroke="#141414" stroke-width="0.5"/>
    <rect x="70.64" y="72.25" width="4.72" height="5.50" rx="0.80" fill="#141414" stroke="#141414" stroke-width="0.5"/>
    <rect x="76.18" y="72.25" width="4.72" height="5.50" rx="0.80" fill="#141414" stroke="#141414" stroke-width="0.5"/>
    <rect x="81.72" y="72.25" width="4.72" height="5.50" rx="0.80" fill="#141414" stroke="#141414" stroke-width="0.5"/>
    <rect x="87.26" y="72.25" width="4.72" height="5.50" rx="0.80" fill="#141414" stroke="#141414" stroke-width="0.5"/>
    <rect x="37.40" y="78.80" width="4.72" height="5.50" rx="0.80" fill="#141414" stroke="#141414" stroke-width="0.5"/>
    <rect x="42.94" y="78.80" width="4.72" height="5.50" rx="0.80" fill="#141414" stroke="#141414" stroke-width="0.5"/>
    <rect x="48.48" y="78.80" width="4.72" height="5.50" rx="0.80" fill="#141414" stroke="#141414" stroke-width="0.5"/>
    <rect x="54.02" y="78.80" width="4.72" height="5.50" rx="0.80" fill="#141414" stroke="#141414" stroke-width="0.5"/>
    <rect x="59.56" y="78.80" width="4.72" height="5.50" rx="0.80" fill="#141414" stroke="#141414" stroke-width="0.5"/>
    <rect x="65.10" y="78.80" width="4.72" height="5.50" rx="0.80" fill="#141414" stroke="#141414" stroke-width="0.5"/>
    <rect x="70.64" y="78.80" width="4.72" height="5.50" rx="0.80" fill="#141414" stroke="#141414" stroke-width="0.5"/>
    <rect x="76.18" y="78.80" width="4.72" height="5.50" rx="0.80" fill="#141414" stroke="#141414" stroke-width="0.5"/>
    <rect x="81.72" y="78.80" width="4.72" height="5.50" rx="0.80" fill="#141414" stroke="#141414" stroke-width="0.5"/>
    <rect x="87.26" y="78.80" width="4.72" height="5.50" rx="0.80" fill="#141414" stroke="#141414" stroke-width="0.5"/>
    <rect x="37.40" y="85.35" width="7.20" height="5.50" rx="0.85" fill="#141414" stroke="#141414" stroke-width="0.5"/>
    <rect x="45.50" y="85.35" width="4.72" height="5.50" rx="0.80" fill="#141414" stroke="#141414" stroke-width="0.5"/>
    <rect x="51.04" y="85.35" width="4.72" height="5.50" rx="0.80" fill="#141414" stroke="#141414" stroke-width="0.5"/>
    <rect x="56.58" y="85.35" width="4.72" height="5.50" rx="0.80" fill="#141414" stroke="#141414" stroke-width="0.5"/>
    <rect x="62.12" y="85.35" width="4.72" height="5.50" rx="0.80" fill="#141414" stroke="#141414" stroke-width="0.5"/>
    <rect x="67.66" y="85.35" width="4.72" height="5.50" rx="0.80" fill="#141414" stroke="#141414" stroke-width="0.5"/>
    <rect x="73.20" y="85.35" width="4.72" height="5.50" rx="0.80" fill="#141414" stroke="#141414" stroke-width="0.5"/>
    <rect x="78.74" y="85.35" width="4.72" height="5.50" rx="0.80" fill="#141414" stroke="#141414" stroke-width="0.5"/>
    <rect x="84.28" y="85.35" width="8.20" height="5.50" rx="0.85" fill="#141414" stroke="#141414" stroke-width="0.5"/>
    <rect x="37.40" y="92.05" width="14.20" height="5.80" rx="1.15" fill="#141414" stroke="#141414" stroke-width="0.5"/>
    <rect x="52.80" y="92.05" width="22.00" height="5.80" rx="1.40" fill="#141414" stroke="#141414" stroke-width="0.5"/>
    <rect x="76.00" y="92.05" width="13.00" height="5.80" rx="1.15" fill="#141414" stroke="#141414" stroke-width="0.5"/>
  </g>
</svg>
