<svg xmlns="http://www.w3.org/2000/svg" viewBox="0 0 128 128" fill="none">
  <g stroke-linejoin="round" stroke-linecap="round">

    <rect x="26" y="10" width="76" height="108" rx="18" fill="#fff" stroke="#141414" stroke-width="2.2"/>
    <rect x="30" y="14" width="68" height="100" rx="15" fill="#fff" stroke="#141414" stroke-width="0.85"/>
    <!-- chrome ring + dark oval -->
    <ellipse cx="64" cy="38" rx="30" ry="18.5" fill="#efe7d6" stroke="#141414" stroke-width="1.5"/>
    <ellipse cx="64" cy="38" rx="26" ry="15" fill="#141414"/>
    <!-- curling label -->
    <path d="M42 36 h44 v22 q0 6-8 6 h-28 q-8 0-8-6 z" fill="#efe7d6" stroke="#141414" stroke-width="1.3"/>
    <rect x="46" y="40.5" width="24" height="1.7" fill="#141414"/>
    <rect x="46" y="45.0" width="34" height="1.35" fill="#141414"/>
    <rect x="46" y="49.2" width="30" height="1.35" fill="#141414"/>
    <rect x="46" y="53.4" width="18" height="1.35" fill="#141414"/>
    <rect x="38" y="64" width="52" height="5.2" rx="1.5" fill="#141414"/>
    <path d="M42 64 h44" stroke="#efe7d6" stroke-width="1.05"/>
    <rect x="40" y="74" width="48" height="15" rx="2" fill="#efe7d6" stroke="#141414" stroke-width="1.55"/>
    <rect x="44.20" y="78.20" width="35.64" height="1.4" rx="0.5" fill="#141414"/>
    <rect x="44.20" y="80.53" width="22.97" height="1.4" rx="0.5" fill="#141414"/>
    <rect x="44.20" y="82.87" width="35.64" height="1.4" rx="0.5" fill="#141414"/>
    <circle cx="50" cy="103" r="8.2" fill="#fff" stroke="#141414" stroke-width="1.5"/>
    <path d="M50 98.2v4.4" stroke="#141414" stroke-width="1.5"/>
    <path d="M46.2 100.4a5 5 0 1 0 7.6 0" fill="none" stroke="#141414" stroke-width="1.3"/>
    <circle cx="78" cy="103" r="8.2" fill="#fff" stroke="#141414" stroke-width="1.5"/>
    <rect x="74.2" y="100.2" width="7.6" height="5.6" rx="0.8" fill="#141414"/>
    <rect x="98.5" y="90" width="3.6" height="11" rx="1" fill="#141414"/>
  </g>
</svg>
