<svg xmlns="http://www.w3.org/2000/svg" viewBox="0 0 128 128" fill="none">
  <g stroke-linejoin="round" stroke-linecap="round">
    <rect x="24.00" y="8.00" width="80.00" height="112.00" rx="20.00" fill="#fff" stroke="#141414" stroke-width="2.2"/>
    <rect x="28.50" y="12.50" width="71.00" height="103.00" rx="17.00" fill="#fff" stroke="#141414" stroke-width="0.85"/>
    <path d="M39.5 24.5 a24.5 17 0 0 1 49 0 a24.5 17 0 0 1 -49 0 z" fill="#efe7d6" stroke="#141414" stroke-width="1.5"/>
    <path d="M43.2 24.5 a20.8 13.4 0 0 1 41.6 0 a20.8 13.4 0 0 1 -41.6 0 z" fill="#141414"/>
    <path d="M49 19.6 a15.5 8 0 0 1 30 0" fill="none" stroke="#efe7d6" stroke-width="1.15"/>
    <rect x="36.00" y="45.00" width="56.00" height="6.20" rx="1.50" fill="#141414"/>
    <path d="M40 45.0 h48" fill="none" stroke="#efe7d6" stroke-width="1.05"/>
    <rect x="40.00" y="47.80" width="2.10" height="1.50" rx="0.30" fill="#efe7d6"/>
    <rect x="44.00" y="47.80" width="2.10" height="1.50" rx="0.30" fill="#efe7d6"/>
    <rect x="48.00" y="47.80" width="2.10" height="1.50" rx="0.30" fill="#efe7d6"/>
    <rect x="52.00" y="47.80" width="2.10" height="1.50" rx="0.30" fill="#efe7d6"/>
    <rect x="56.00" y="47.80" width="2.10" height="1.50" rx="0.30" fill="#efe7d6"/>
    <rect x="60.00" y="47.80" width="2.10" height="1.50" rx="0.30" fill="#efe7d6"/>
    <rect x="64.00" y="47.80" width="2.10" height="1.50" rx="0.30" fill="#efe7d6"/>
    <rect x="68.00" y="47.80" width="2.10" height="1.50" rx="0.30" fill="#efe7d6"/>
    <rect x="72.00" y="47.80" width="2.10" height="1.50" rx="0.30" fill="#efe7d6"/>
    <rect x="76.00" y="47.80" width="2.10" height="1.50" rx="0.30" fill="#efe7d6"/>
    <rect x="80.00" y="47.80" width="2.10" height="1.50" rx="0.30" fill="#efe7d6"/>
    <rect x="84.00" y="47.80" width="2.10" height="1.50" rx="0.30" fill="#efe7d6"/>
    <rect x="38.00" y="56.50" width="52.00" height="21.50" rx="2.10" fill="#efe7d6" stroke="#141414" stroke-width="1.4"/>
    <rect x="42.00" y="61.30" width="44.00" height="1.10" rx="0.40" fill="#141414"/>
    <rect x="42.00" y="64.67" width="27.28" height="1.10" rx="0.40" fill="#141414"/>
    <rect x="42.00" y="68.05" width="44.00" height="1.10" rx="0.40" fill="#141414"/>
    <rect x="42.00" y="71.42" width="27.28" height="1.10" rx="0.40" fill="#141414"/>
    <rect x="78.60" y="60.20" width="7.00" height="3.40" rx="0.55" fill="#fff" stroke="#141414" stroke-width="0.7"/>
    <rect x="85.40" y="61.20" width="1.15" height="1.50" rx="0.30" fill="#141414"/>
    <circle cx="48.00" cy="94.50" r="9.00" fill="#fff" stroke="#141414" stroke-width="1.4"/>
    <path d="M48.00 90.60v3.59" fill="none" stroke="#141414" stroke-width="1.35"/>
    <path d="M45.19 93.64a3.59 3.59 0 1 0 5.62 0" fill="none" stroke="#141414" stroke-width="1.35"/>
    <circle cx="80.00" cy="94.50" r="9.00" fill="#fff" stroke="#141414" stroke-width="1.4"/>
    <rect x="76.37" y="92.44" width="7.26" height="5.12" rx="0.70" fill="#141414"/>
    <rect x="77.68" y="90.29" width="4.65" height="2.56" rx="0.35" fill="#141414"/>
    <rect x="77.97" y="93.87" width="4.07" height="1.43" rx="0.25" fill="#fff"/>
    <rect x="58.00" y="110.00" width="12.00" height="4.00" rx="1.20" fill="#141414"/>
    <rect x="59.80" y="111.10" width="8.40" height="1.80" rx="0.60" fill="#fff"/>
    <path d="M34 51 h8 M86 51 h8" fill="none" stroke="#141414" stroke-width="0.7"/>
  </g>
</svg>
