<svg xmlns="http://www.w3.org/2000/svg" viewBox="0 0 128 128" fill="none">
  <g stroke="#141414" stroke-linejoin="round" stroke-linecap="round">
    <rect x="20" y="5" width="88" height="118" rx="20" fill="#fff" stroke-width="2.2"/>
    <path d="M21.1 70.2 H106.9" fill="none" stroke-width="1.15"/>
    <rect x="27" y="13.5" width="74" height="42.5" rx="21.25" fill="#141414" stroke-width="1.35"/>
    <!-- Phomemo mushroom: dome cap + small stem, spots on the right -->
    <ellipse cx="64" cy="35.9" rx="3.45" ry="4.25" fill="#fff" stroke="none"/>
    <path d="M53.2 31.8c0-6.7 4.8-10.6 10.8-10.6s10.8 3.9 10.8 10.6c0 2.1-2.4 3.2-10.8 3.2S53.2 33.9 53.2 31.8z" fill="#fff" stroke="none"/>
    <circle cx="68.4" cy="29" r="1.85" fill="#141414" stroke="none"/>
    <circle cx="72.15" cy="30.7" r="1.18" fill="#141414" stroke="none"/>
    <text x="64" y="48.7" text-anchor="middle" fill="#fff" stroke="none" font-family="Liberation Sans, Nimbus Sans, Arial, sans-serif" font-size="8" font-weight="700">Phomemo</text>
    <!-- saw-tooth tear bar -->
    <rect x="30.5" y="66.1" width="67" height="8.2" rx="4.1" fill="#fff" stroke-width="1.25"/>
    <rect x="33.2" y="67.9" width="61.6" height="4.6" rx="1.3" fill="#141414" stroke="none"/>
    <path d="M34.5 68.7 L36.05 71.7 L37.6 68.7 L39.15 71.7 L40.7 68.7 L42.25 71.7 L43.8 68.7 L45.35 71.7 L46.9 68.7 L48.45 71.7 L50 68.7 L51.55 71.7 L53.1 68.7 L54.65 71.7 L56.2 68.7 L57.75 71.7 L59.3 68.7 L60.85 71.7 L62.4 68.7 L63.95 71.7 L65.5 68.7 L67.05 71.7 L68.6 68.7 L70.15 71.7 L71.7 68.7 L73.25 71.7 L74.8 68.7 L76.35 71.7 L77.9 68.7 L79.45 71.7 L81 68.7 L82.55 71.7 L84.1 68.7 L85.65 71.7 L87.2 68.7 L88.75 71.7 L90.3 68.7 L91.85 71.7 L93.4 68.7" fill="none" stroke="#fff" stroke-width="1.05"/>
    <!-- LCD -->
    <rect x="41.5" y="79.2" width="45" height="20.4" rx="4.2" fill="#141414" stroke-width="1.2"/>
    <path d="M52.4 83.55 a3.15 3.15 0 0 1 6.3 0" fill="none" stroke="#e8b820" stroke-width="0.85"/>
    <path d="M53.55 84.55 a1.85 1.85 0 0 1 3.7 0" fill="none" stroke="#e8b820" stroke-width="0.85"/>
    <circle cx="55.55" cy="86.15" r="0.55" fill="#e8b820" stroke="none"/>
    <rect x="72.2" y="83.15" width="8.6" height="4.15" rx="0.7" fill="none" stroke="#e8b820" stroke-width="0.8"/>
    <rect x="80.8" y="84.2" width="1.15" height="2.05" rx="0.4" fill="#e8b820" stroke="none"/>
    <rect x="73.45" y="83.95" width="1.35" height="2.55" rx="0.2" fill="#e8b820" stroke="none"/>
    <rect x="75.15" y="83.95" width="1.35" height="2.55" rx="0.2" fill="#e8b820" stroke="none"/>
    <rect x="76.85" y="83.95" width="1.35" height="2.55" rx="0.2" fill="#e8b820" stroke="none"/>
    <text x="64" y="92.7" text-anchor="middle" fill="#3ec8e0" stroke="none" font-family="Liberation Sans, Nimbus Sans, Arial, sans-serif" font-size="4.2" font-weight="700">Label Printer</text>
    <text x="64" y="97.05" text-anchor="middle" fill="#3ec8e0" stroke="none" font-family="Liberation Sans, Nimbus Sans, Arial, sans-serif" font-size="3.15" font-weight="600">1009E07T0070073</text>
    <!-- power -->
    <circle cx="51.2" cy="109.2" r="7.35" fill="#fff" stroke-width="1.35"/>
    <path d="M51.2 105.55 v3.55" fill="none" stroke-width="1.35"/>
    <path d="M48.45 108.35 a3.55 3.55 0 1 0 5.5 0" fill="none" stroke-width="1.35"/>
    <!-- print -->
    <circle cx="76.8" cy="109.2" r="7.35" fill="#fff" stroke-width="1.35"/>
    <rect x="73.55" y="108.15" width="6.5" height="4.35" rx="0.7" fill="none" stroke-width="1.05"/>
    <rect x="74.85" y="106.15" width="3.9" height="2.35" rx="0.35" fill="none" stroke-width="1.05"/>
    <path d="M74.7 110.05 h4.2" fill="none" stroke-width="0.9"/>
  </g>
</svg>
